{"title":"Double Penetration Of Cute Teen Alyssa[truehdporn].mp4","uid":7549844,"size":176959354,"categoryP":"porn","categoryS":"movie_clips","magnet":"?xt=urn:btih:1ac9c836362b48cb5ef35f2ab99c59301820474d&amp;dn=Double+Penetration+Of+Cute+Teen+Alyssa%5Btruehdporn%5D.mp4&amp;tr=udp%3A%2F%2Ftracker.openbittorrent.com%3A80&amp;tr=udp%3A%2F%2Fopen.demonii.com%3A1337&amp;tr=udp%3A%2F%2Ftracker.coppersurfer.tk%3A6969&amp;tr=udp%3A%2F%2Fexodus.desync.com%3A6969","seeders":0,"leechers":1,"uploader":"hdporn","files":1,"time":1345453986,"description":"Format : MPEG-4\nFormat profile : Base Media\nCodec ID : isom\nFile size : 169 MiB\nDuration : 25mn 23s\nOverall bit rate mode : Variable\nOverall bit rate : 929 Kbps\n\nVideo\nID : 1\nFormat : AVC\nFormat/Info : Advanced Video Codec\nFormat profile : &lt;a class=&quot;__cf_email__&quot; href=&quot;/cdn-cgi/l/email-protection&quot; data-cfemail=&quot;347c5d535c7478071a05&quot;&gt;[email&amp;#160;protected]&lt;/a&gt;&lt;script data-cfhash='f9e31' type=&quot;text/javascript&quot;&gt;\n/* &lt;![CDATA[ */!function(){try{var t=&quot;currentScript&quot;in document?document.currentScript:function(){for(var t=document.getElementsByTagName(&quot;script&quot;),e=t.length;e--;)if(t[e].getAttribute(&quot;data-cfhash&quot;))return t[e]}();if(t&amp;&amp;t.previousSibling){var e,r,n,i,c=t.previousSibling,a=c.getAttribute(&quot;data-cfemail&quot;);if(a){for(e=&quot;&quot;,r=parseInt(a.substr(0,2),16),n=2;a.length-n;n+=2)i=parseInt(a.substr(n,2),16)^r,e+=String.fromCharCode(i);e=document.createTextNode(e),c.parentNode.replaceChild(e,c)}t.parentNode.removeChild(t);}}catch(u){}}()/* ]]&gt; */&lt;/script&gt;\nFormat settings, CABAC : Yes\nFormat settings, ReFrames : 4 frames\nCodec ID : avc1\nCodec ID/Info : Advanced Video Coding\nDuration : 25mn 23s\nBit rate mode : Variable\nBit rate : 868 Kbps\nWidth : 880 pixels\nHeight : 496 pixels\nDisplay aspect ratio : 16:9\nFrame rate mode : Constant\nFrame rate : 25.000 fps\nColor space : YUV\nChroma subsampling : 4:2:0\nBit depth : 8 bits\nScan type : Progressive\nBits/(Pixel*Frame) : 0.080\nStream size : 158 MiB (94%)\n\nAudio\nID : 2\nFormat : AAC\nFormat/Info : Advanced Audio Codec\nFormat profile : LC\nCodec ID : 40\nDuration : 25mn 23s\nBit rate mode : Variable\nBit rate : 53.1 Kbps\nChannel(s) : 2 channels\nChannel positions : Front: L R\nSampling rate : 22.05 KHz\nCompression mode : Lossy\nDelay relative to video : -1ms\nStream size : 9.65 MiB (6%)\nLanguage : Russian\n\nSCREENSHOT.....\n &lt;a href=&quot;\nhttp://www.pixsor.com/share-DDB8_5031E4EE.html&quot; rel=&quot;nofollow&quot; target=&quot;_NEW&quot;&gt;\nhttp://www.pixsor.com/share-DDB8_5031E4EE.html&lt;/a&gt;","torrent":{"xt":"urn:btih:1ac9c836362b48cb5ef35f2ab99c59301820474d","amp;dn":"Double+Penetration+Of+Cute+Teen+Alyssa%5Btruehdporn%5D.mp4","amp;tr":["udp%3A%2F%2Ftracker.openbittorrent.com%3A80","udp%3A%2F%2Fopen.demonii.com%3A1337","udp%3A%2F%2Ftracker.coppersurfer.tk%3A6969","udp%3A%2F%2Fexodus.desync.com%3A6969"],"infoHash":"1ac9c836362b48cb5ef35f2ab99c59301820474d","infoHashBuffer":{"type":"Buffer","data":[26,201,200,54,54,43,72,203,94,243,95,42,185,156,89,48,24,32,71,77]},"announce":[],"urlList":[]}}